{
	"asset":{
		"generator":"Khronos glTF Blender I/O v4.0.44",
		"version":"2.0"
	},
	"extensionsUsed":[
		"KHR_materials_transmission",
		"KHR_materials_specular",
		"KHR_materials_ior"
	],
	"scene":0,
	"scenes":[
		{
			"name":"Scene",
			"nodes":[
				0
			]
		}
	],
	"nodes":[
		{
			"mesh":0,
			"name":"terlik",
			"rotation":[
				0.7071068286895752,
				0,
				0,
				0.7071068286895752
			]
		}
	],
	"materials":[
		{
			"alphaMode":"BLEND",
			"doubleSided":true,
			"extensions":{
				"KHR_materials_transmission":{
					"transmissionFactor":1
				},
				"KHR_materials_specular":{
					"specularFactor":0
				},
				"KHR_materials_ior":{
					"ior":0
				}
			},
			"name":"standardSurface2SG",
			"pbrMetallicRoughness":{
				"baseColorFactor":[
					0,
					0,
					0,
					1
				],
				"metallicFactor":0
			}
		},
		{
			"alphaMode":"BLEND",
			"doubleSided":true,
			"extensions":{
				"KHR_materials_transmission":{
					"transmissionFactor":1
				},
				"KHR_materials_specular":{
					"specularFactor":0
				},
				"KHR_materials_ior":{
					"ior":0
				}
			},
			"name":"standardSurface3SG",
			"pbrMetallicRoughness":{
				"baseColorFactor":[
					0,
					0,
					0,
					1
				],
				"metallicFactor":0
			}
		}
	],
	"meshes":[
		{
			"name":"terlik",
			"primitives":[
				{
					"attributes":{
						"POSITION":0,
						"NORMAL":1,
						"TEXCOORD_0":2
					},
					"indices":3,
					"material":0
				},
				{
					"attributes":{
						"POSITION":4,
						"NORMAL":5,
						"TEXCOORD_0":6
					},
					"indices":7,
					"material":1
				}
			]
		}
	],
	"accessors":[
		{
			"bufferView":0,
			"componentType":5126,
			"count":3449,
			"max":[
				3.7781970500946045,
				1.469938039779663,
				0.8922110199928284
			],
			"min":[
				-3.5273170471191406,
				-1.4144660234451294,
				-1.912348985671997
			],
			"type":"VEC3"
		},
		{
			"bufferView":1,
			"componentType":5126,
			"count":3449,
			"type":"VEC3"
		},
		{
			"bufferView":2,
			"componentType":5126,
			"count":3449,
			"type":"VEC2"
		},
		{
			"bufferView":3,
			"componentType":5123,
			"count":10176,
			"type":"SCALAR"
		},
		{
			"bufferView":4,
			"componentType":5126,
			"count":1938,
			"max":[
				3.8827579021453857,
				1.5342049598693848,
				1.4678850173950195
			],
			"min":[
				-3.804011106491089,
				-1.4697810411453247,
				0.3205060064792633
			],
			"type":"VEC3"
		},
		{
			"bufferView":5,
			"componentType":5126,
			"count":1938,
			"type":"VEC3"
		},
		{
			"bufferView":6,
			"componentType":5126,
			"count":1938,
			"type":"VEC2"
		},
		{
			"bufferView":7,
			"componentType":5123,
			"count":6558,
			"type":"SCALAR"
		}
	],
	"bufferViews":[
		{
			"buffer":0,
			"byteLength":41388,
			"byteOffset":0,
			"target":34962
		},
		{
			"buffer":0,
			"byteLength":41388,
			"byteOffset":41388,
			"target":34962
		},
		{
			"buffer":0,
			"byteLength":27592,
			"byteOffset":82776,
			"target":34962
		},
		{
			"buffer":0,
			"byteLength":20352,
			"byteOffset":110368,
			"target":34963
		},
		{
			"buffer":0,
			"byteLength":23256,
			"byteOffset":130720,
			"target":34962
		},
		{
			"buffer":0,
			"byteLength":23256,
			"byteOffset":153976,
			"target":34962
		},
		{
			"buffer":0,
			"byteLength":15504,
			"byteOffset":177232,
			"target":34962
		},
		{
			"buffer":0,
			"byteLength":13116,
			"byteOffset":192736,
			"target":34963
		}
	],
	"buffers":[
		{
			"byteLength":205852,
			"uri":"sandal.bin"
		}
	]
}
